<?xml version="1.0" standalone="no"?>
<!DOCTYPE svg PUBLIC "-//W3C//DTD SVG 1.1//EN" "http://www.w3.org/Graphics/SVG/1.1/DTD/svg11.dtd" >
<svg xmlns="http://www.w3.org/2000/svg">
<metadata>Generated by IcoMoon</metadata>
<defs>
<font id="inspire-icons" horiz-adv-x="1024">
<font-face units-per-em="1024" ascent="960" descent="-64" />
<missing-glyph horiz-adv-x="1024" />
<glyph unicode="&#x20;" horiz-adv-x="512" d="" />
<glyph unicode="&#xe900;" glyph-name="Ban" d="M512 960c-282.624 0-512-229.376-512-512s229.376-512 512-512c282.624 0 512 229.376 512 512s-229.376 512-512 512zM512 38.4c-226.304 0-409.6 183.296-409.6 409.6 0 94.72 32.256 181.76 86.528 250.88l573.952-573.952c-69.12-54.272-156.16-86.528-250.88-86.528zM835.072 197.12l-573.952 573.952c69.12 54.272 156.16 86.528 250.88 86.528 226.304 0 409.6-183.296 409.6-409.6 0-94.72-32.256-181.76-86.528-250.88z" />
<glyph unicode="&#xe901;" glyph-name="Delivery" d="M905.671 845.653c-11.378 33.564-43.236 57.458-80.782 57.458h-625.778c-37.547 0-68.836-23.893-80.782-57.458l-118.329-340.764v-455.111c0-31.289 25.6-56.889 56.889-56.889h56.889c31.289 0 56.889 25.6 56.889 56.889v56.889h682.667v-56.889c0-31.289 25.6-56.889 56.889-56.889h56.889c31.289 0 56.889 25.6 56.889 56.889v455.111l-118.329 340.764zM199.111 277.333c-47.218 0-85.333 38.116-85.333 85.333s38.116 85.333 85.333 85.333c47.218 0 85.333-38.116 85.333-85.333s-38.116-85.333-85.333-85.333zM824.889 277.333c-47.218 0-85.333 38.116-85.333 85.333s38.116 85.333 85.333 85.333c47.218 0 85.333-38.116 85.333-85.333s-38.116-85.333-85.333-85.333zM113.778 561.778l85.333 256h625.778l85.333-256h-796.444z" />
<glyph unicode="&#xe902;" glyph-name="Stopwatch" d="M642.031 960h-292.57v-97.524h292.57v97.524zM446.984 326.093h97.524v292.574h-97.524v-292.574zM838.542 648.412l69.239 69.242c-20.964 24.868-43.884 48.274-68.75 68.754l-69.245-69.242c-75.577 60.465-170.667 96.548-274.040 96.548-242.347 0-438.857-196.51-438.857-438.856s196.023-438.858 438.857-438.858c242.836 0 438.859 196.511 438.859 438.858 0 103.375-36.085 198.46-96.063 273.554zM495.746 33.525c-188.709 0-341.333 152.622-341.333 341.333 0 188.708 152.624 341.333 341.333 341.333 188.707 0 341.334-152.625 341.334-341.333 0-188.712-152.627-341.333-341.334-341.333z" />
<glyph unicode="&#xe903;" glyph-name="Bag" d="M830.578 755.2h-102.4c0 113.152-91.648 204.8-204.8 204.8s-204.8-91.648-204.8-204.8h-102.4c-56.32 0-102.4-46.080-102.4-102.4v-614.4c0-56.32 46.080-102.4 102.4-102.4h614.4c56.32 0 102.4 46.080 102.4 102.4v614.4c0 56.32-46.080 102.4-102.4 102.4zM523.378 857.6c56.32 0 102.4-46.080 102.4-102.4h-204.8c0 56.32 46.080 102.4 102.4 102.4zM830.578 38.4h-614.4v614.4h102.4v-102.4c0-28.16 23.040-51.2 51.2-51.2s51.2 23.040 51.2 51.2v102.4h204.8v-102.4c0-28.16 23.040-51.2 51.2-51.2s51.2 23.040 51.2 51.2v102.4h102.4v-614.4z" />
<glyph unicode="&#xe904;" glyph-name="Hamburger" d="M0 106.667h1024v113.778h-1024v-113.778zM0 391.111h1024v113.778h-1024v-113.778zM0 789.333v-113.778h1024v113.778h-1024z" />
<glyph unicode="&#xe905;" glyph-name="MapPin" d="M529.067 960c-198.144 0-358.4-160.256-358.4-358.4 0-268.8 358.4-665.6 358.4-665.6s358.4 396.8 358.4 665.6c0 198.144-160.256 358.4-358.4 358.4zM273.067 601.6c0 141.312 114.688 256 256 256s256-114.688 256-256c0-147.456-147.456-368.128-256-505.856-106.496 136.704-256 359.936-256 505.856zM529.067 473.601c70.69 0 128 57.308 128 128s-57.31 128-128 128c-70.692 0-128-57.308-128-128s57.308-128 128-128z" />
<glyph unicode="&#xe906;" glyph-name="OrderHistory" d="M585.142 903.111c-242.346 0-438.856-196.511-438.856-438.857h-146.286l189.684-189.685 3.413-6.827 196.998 196.512h-146.286c0 188.709 152.625 341.333 341.333 341.333 188.712 0 341.333-152.624 341.333-341.333 0-188.707-152.622-341.334-341.333-341.334-94.11 0-179.443 38.525-240.883 100.449l-69.242-69.239c79.482-79.485 188.708-128.734 310.125-128.734 242.347 0 438.858 196.511 438.858 438.859s-196.511 438.857-438.858 438.857zM536.381 659.302v-243.81l208.699-123.857 35.112 59.005-170.667 101.423v207.238h-73.144z" />
<glyph unicode="&#xe907;" glyph-name="Down" d="M903.68 789.333l-391.68-386.783-391.68 386.783-120.32-119.075 512-506.703 512 506.703-120.32 119.075z" />
<glyph unicode="&#xe908;" glyph-name="Left" d="M796.444 839.68l-119.074 120.32-506.704-512 506.704-512 119.074 120.32-386.783 391.68 386.783 391.68z" />
<glyph unicode="&#xe909;" glyph-name="Right" d="M289.742 960l-119.075-120.32 386.783-391.68-386.783-391.68 119.075-120.32 506.703 512-506.703 512z" />
<glyph unicode="&#xe90a;" glyph-name="Up" d="M512 846.222l-512-506.704 120.32-119.074 391.68 386.783 391.68-386.783 120.32 119.074-512 506.704z" />
<glyph unicode="&#xe90b;" glyph-name="Add" d="M1024 374.858h-438.858v-438.858h-146.285v438.858h-438.857v146.285h438.857v438.857h146.285v-438.857h438.858v-146.285z" />
<glyph unicode="&#xe90c;" glyph-name="Calendar" d="M865.974 857.6h-50.569v102.4h-101.131v-102.4h-404.546v102.4h-101.135v-102.4h-50.568c-56.131 0-101.136-46.080-101.136-102.4v-716.8c0-56.32 45.005-102.4 101.136-102.4h707.949c55.626 0 101.137 46.080 101.137 102.4v716.8c0 56.32-45.511 102.4-101.137 102.4zM865.974 38.4h-707.949v512h707.949v-512zM865.974 652.8h-707.949v102.4h707.949v-102.4zM259.161 448h252.839v-256h-252.839v256z" />
<glyph unicode="&#xe90d;" glyph-name="Check" d="M325.422 217.856l-242.756 247.665-82.665-83.745 325.422-331.998 698.578 712.702-82.085 83.743-616.494-628.366z" />
<glyph unicode="&#xe90e;" glyph-name="Close" d="M1024 856.868l-103.134 103.132-408.866-408.868-408.868 408.868-103.132-103.132 408.868-408.868-408.868-408.866 103.132-103.134 408.868 408.866 408.866-408.866 103.134 103.134-408.866 408.866 408.866 408.868z" />
<glyph unicode="&#xe90f;" glyph-name="Directions" d="M995.556 960l-9.102-1.707-303.787-117.76-341.333 119.467-320.853-108.089c-11.947-3.982-20.48-14.222-20.48-27.307v-860.16c0-15.929 12.516-28.444 28.444-28.444l9.102 1.707 303.787 117.76 341.333-119.467 320.853 108.089c11.947 3.982 20.48 14.222 20.48 27.307v860.16c0 15.929-12.516 28.444-28.444 28.444zM398.222 819.484l227.556-79.644v-663.324l-227.556 79.644v663.324zM113.778 763.164l170.667 57.458v-665.6l-170.667-65.991v674.133zM910.222 132.836l-170.667-57.458v665.031l170.667 65.991v-673.564z" />
<glyph unicode="&#xe910;" glyph-name="Edit" d="M0 191.865v-202.105h202.105l596.076 596.076-202.105 202.105-596.076-596.076zM954.476 742.131c21.019 21.019 21.019 54.973 0 75.992l-126.114 126.114c-21.019 21.019-54.973 21.019-75.992 0l-98.627-98.627 202.105-202.105 98.627 98.627z" />
<glyph unicode="&#xe911;" glyph-name="Filter" d="M398.222 106.667h227.556v113.778h-227.556v-113.778zM0 789.333v-113.778h1024v113.778h-1024zM170.667 391.111h682.667v113.778h-682.667v-113.778z" />
<glyph unicode="&#xe912;" glyph-name="NewWindow" d="M910.222 49.778h-796.444v796.444h398.222v113.778h-398.222c-63.147 0-113.778-51.2-113.778-113.778v-796.444c0-62.578 50.631-113.778 113.778-113.778h796.444c62.578 0 113.778 51.2 113.778 113.778v398.222h-113.778v-398.222zM625.778 960v-113.778h204.231l-559.218-559.218 80.213-80.213 559.218 559.218v-204.231h113.778v398.222h-398.222z" />
<glyph unicode="&#xe914;" glyph-name="PaperFilled" d="M1024 960l-429.335-1024h-55.999l-149.333 389.336-389.333 149.33v56l1024 429.334z" />
<glyph unicode="&#xe915;" glyph-name="Phone" d="M0 251.164l299.804 34.702 143.36-143.36c160.996 81.92 292.978 213.333 374.898 374.898l-143.929 143.929 34.702 298.667h313.458c32.996-579.129-443.164-1055.289-1022.293-1022.293v313.458z" />
<glyph unicode="&#xe916;" glyph-name="Search" d="M731.847 315.972h-46.251l-16.395 15.809c57.378 66.745 91.921 153.396 91.921 247.658 0 210.187-170.377 380.56-380.562 380.56-210.187 0-380.56-170.374-380.56-380.56s170.374-380.562 380.56-380.562c94.261 0 180.912 34.543 247.658 91.921l15.809-16.395v-46.251l292.739-292.153 87.233 87.233-292.153 292.739zM380.56 315.972c-145.784 0-263.465 117.684-263.465 263.467s117.681 263.465 263.465 263.465c145.783 0 263.467-117.681 263.467-263.465s-117.684-263.467-263.467-263.467z" />
<glyph unicode="&#xe917;" glyph-name="Subtract" d="M1024 372.827h-1024v146.284h1024v-146.284z" />
<glyph unicode="&#xe918;" glyph-name="Chicken" d="M710.207 927.231c12.663-1.881 20.855-7.9 27.563-15.8 6.332-7.524 11.543-16.176 18.25-23.7 3.726-3.761 10.058-8.652 14.154-7.524s8.937 8.276 9.682 13.167c2.236 14.671 2.236 29.343 3.351 44.014 0.375 6.019 1.866 12.038 2.611 19.186 16.014-8.652 21.231-22.572 27.563-35.738 2.981-6.395 5.211-12.791 8.937-18.434 5.962-9.781 15.275-9.781 20.116 0.377 5.956 12.038 9.682 24.829 14.524 37.243 2.236 6.019 4.471 12.038 7.452 19.562 17.135-15.8 21.231-34.61 19.74-53.796s-6.707-37.995-10.428-58.686c11.173-0.752 23.461-1.881 36.13-2.633-7.822-25.957-24.587-45.519-42.837-64.705 17.135-8.276 32.779-17.681 41.717-36.114-10.803 3.385-20.855 7.148-30.913 9.781-6.707 1.505-13.409 1.881-20.116 1.505-18.62-0.752-31.659-12.79-30.913-31.6 0.745-19.562 2.981-39.501 8.192-57.934 7.077-25.581 17.135-50.786 26.448-75.615 20.855-56.053 17.505-112.106-2.981-167.030-22.346-59.064-52.52-114.365-87.905-166.277-23.461-34.236-55.125-59.062-96.097-69.598-2.606-0.751-4.841-4.887-5.586-7.902-5.956-19.558-10.428-39.122-17.135-58.305-5.211-15.047-13.778-28.592-28.308-37.245-1.49-0.751-2.975-4.136-2.606-6.019 1.49-15.423 3.726-30.845 5.217-46.649 0.745-6.77 3.721-9.779 10.052-11.287 9.313-2.634 18.625-6.019 27.563-11.662-9.682-1.502-18.995-2.634-28.678-4.136 6.332-11.662 11.918-22.198 17.505-33.104-0.745-0.757-1.115-1.132-1.86-1.883-8.567 4.892-17.88 9.028-25.702 15.047-17.505 13.17-36.875 15.804-57.732 11.662-2.235-0.375-4.842 0-10.429 0 10.429 6.019 18.997 10.911 27.189 15.423 16.39 8.653 13.784 5.268 11.918 22.574-1.49 15.423-2.236 31.226-4.096 46.649-1.49 10.911-4.096 21.441-5.962 31.977-2.23 13.54 0.375 26.709 6.337 39.122 4.096 9.404 7.447 19.189 11.173 29.343-3.356 0.751-5.962 1.508-7.452 2.258-8.937-19.189-16.39-38.747-26.442-56.809-8.941-15.423-21.233-28.962-32.035-43.258-2.235-3.009-4.47-6.775-4.842-10.16-2.607-20.69-4.097-41.756-6.332-62.447-0.745-5.643 0.373-8.277 5.96-10.53 15.644-6.4 27.191-17.681 36.502-32.353-13.781 4.136-27.563 8.272-43.207 13.164 5.214-16.555 10.057-30.47 14.526-44.015-16.761 8.277-27.563 21.441-36.502 36.113-3.352 4.892-5.96 6.394-11.919 4.892-15.644-3.385-31.288-5.643-46.932-8.653-0.373 1.126-0.745 2.634-1.49 3.76 13.037 6.394 25.701 14.296 39.855 18.438 11.547 3.385 13.037 10.155 14.899 19.934 7.822 42.138 9.312 84.27 8.94 127.158 0 16.924 3.352 34.23 5.214 52.287-23.466-5.643-33.15-25.202-43.579-44.766-9.312 14.672-10.429 30.47-10.801 47.4-23.093-7.145-29.425-27.085-37.62-46.649-10.429 15.804-9.312 33.109-8.566 50.79-22.349-4.517-33.523-21.447-46.932-37.996-11.547 23.324-11.174 47.775-9.684 72.226-13.782 0.375-24.583-8.277-54.009-44.39-7.45 37.245-8.567 74.109-8.194 112.481-44.324-18.057-76.729-48.902-107.645-82.005 9.684 54.17 31.288 103.828 61.086 150.101-24.955-24.457-51.401-46.649-86.041-54.551-35.758-8.277-69.652-7.526-103.175-0.375 15.644 14.296 31.66 27.46 46.559 42.132 8.194 8.277 14.527 18.813 22.348 27.466 18.996 21.064 42.089 35.359 68.907 44.388 2.235 0.753 4.47 1.881 10.057 4.138-7.822 5.643-13.409 12.791-20.486 14.296-18.624 4.138-37.62 6.771-56.616 8.652-16.761 1.505-33.522 0.376-51.029 0.376 11.919 6.771 23.466 13.167 35.012 20.314 24.955 15.424 49.539 31.977 74.867 47.401 46.186 28.591 94.981 28.967 143.402 7.524 28.681-12.79 56.616-27.838 83.806-44.014 39.855-24.077 80.827-26.71 122.916-10.158 75.241 29.343 119.933 85.772 141.54 163.268 8.937 31.976 19.371 63.953 31.659 94.801 10.428 26.333 25.327 50.41 51.405 63.953 0.745 0.377 1.115 1.505 2.606 3.010-5.217-0.753-9.682-0.753-14.154-1.881-30.913-7.524-64.438 18.058-74.866 44.391-1.49 3.762-0.375 8.652-0.375 13.167 4.471-0.377 10.058 0.752 13.784-1.505 7.447-4.138 13.778-10.534 21.231-14.672 4.841-2.633 12.663-5.643 16.759-3.386s7.452 10.534 6.707 15.8c-1.121 10.534-4.847 21.067-8.198 31.6-3.726 11.662-8.192 22.948-12.288 34.234-1.121 1.881-1.49 4.891-2.236 9.405z" />
<glyph unicode="&#xe919;" glyph-name="Cow" d="M935.191 749.424l-45.676 49.067c16.122 0 33.582-6.133 47.019 3.067 22.835 18.4 26.869 36.8 14.774 32.2-1.343 0-5.37-1.534-6.713-3.067-32.245-15.333-65.826 18.4-102.098 15.333-6.719-4.6-14.78-7.666-16.122-18.4s8.061-13.8 6.719-26.066c-21.493 1.533-30.896 29.133-52.395 15.333-5.37-3.067-16.122-15.333-9.404-27.6 4.033-7.666 18.807-6.133 25.526-12.266-1.343-6.134-4.028-9.2-12.089-9.2-5.376 0-10.746 0-17.465-1.534l-110.16-7.666c-48.361-3.067-96.724-7.667-145.087-12.267s-95.381-15.333-145.087-12.266c-47.019 1.533-95.38 7.666-143.743 12.266-47.019 4.6-99.411 16.867-132.996-12.266-22.838-18.4-18.807-21.467-26.868-36.8-2.687-6.133-4.030-6.133-8.060-13.8-10.747-21.467-21.494-128.8-21.494-153.334 4.030-99.667-17.464-61.333-29.555-93.533-13.434-38.333 9.404-78.199 10.747-113.465 9.404 3.066 14.777 19.928 14.777 35.265-1.343 49.066 24.181 47.532 26.868 76.666 1.343 21.467-10.747 12.267-6.717 38.333 6.717 42.934 8.060 157.934 20.151 185.535l-2.687-130.334c0-18.4-1.343-46 2.687-64.4 2.687-16.867 17.464-26.067 17.464-44.467-4.030-4.6-8.061-4.6-12.091-9.2-4.030-3.066-8.061-7.666-10.747-10.733-5.374-9.2-10.747-21.465-9.404-35.267 1.343-18.398 9.404-39.868 12.090-78.199 2.687-29.133 2.687-59.802 0-88.934-1.343-6.133-2.686-15.332 0-21.47 2.687-9.199 5.374-6.133 9.404-10.729 9.404-10.735-6.717-18.404-6.717-32.199 2.687-10.735 48.362-35.271 68.513-23 12.091 7.663 9.404 24.53 0 35.265-28.211 30.663-25.524 85.868-20.151 128.802 1.343 18.398 12.091 64.398 25.524 76.663 24.181-29.133 38.959-108.868 38.959-159.465 0-1.536 10.747-7.669 20.151-18.404 18.807-23 13.434-36.796 40.302-38.332 12.091 0 21.494 0 29.555 7.669-1.343 15.332-12.091 27.597-18.807 36.801-5.374 7.663-16.121 23-21.494 33.729-10.747 23-18.807 67.47-8.061 95.067l12.091 1.536 5.374-10.735c4.030-4.602 5.374-6.133 9.404-7.669 4.030 4.602 6.717 10.735 9.404 18.404l17.464 1.53c2.687-9.199 8.060-16.868 13.434-19.934 12.091 9.205 2.687 21.47 13.434 29.138 1.344 1.53 4.031 1.53 5.374 3.066 10.747 7.663 17.464 12.265 25.524 23 4.031 7.663 8.061 16.862 12.091 21.464 55.079 0 72.544-4.602 137.027 0 10.747 1.536 21.494 1.536 33.584 3.066 12.091 1.536 20.151 4.602 26.868-4.602 9.404-15.332 9.404-47.531 2.687-65.929-12.091-30.669-2.687-29.138 5.374-41.404 10.747-19.934 16.122-61.332 10.747-81.266-5.374-16.868-2.687-13.801 6.718-23s8.061-15.332 14.774-23c9.404-9.199 26.869-15.332 40.306-13.801 2.685 0 6.713 0 8.061 1.536 6.713 3.066 2.685 0 5.37 4.597 6.719 16.868-16.122 21.47-21.493 32.205-4.033 6.133-26.869 119.598 1.343 150.266 2.685-4.602 2.685-12.271 2.685-18.404 1.343-27.597 8.061-26.066 16.122-42.934 16.122-33.729 2.685-84.332 20.15-99.664 16.122-12.265 30.896-30.669 41.648-35.265 9.404-3.066 22.835-1.536 29.554 3.066 2.685 21.464-30.902 23-45.676 96.597-5.376 32.199-5.376 102.736 0 136.471 2.685 3.066 10.746 0 16.122 1.53 30.896 1.536 45.67 59.801 55.074 87.401 14.78 50.6 28.217 78.201 53.737 108.867 47.019 56.734 57.765 21.467 111.502 44.467 80.606 35.267 71.202 3.066 84.634 32.2 6.719 10.733 13.437 10.733 18.807 19.933 2.685 13.8-32.239 46-42.985 58.267l-45.676 50.6z" />
<glyph unicode="&#xe91a;" glyph-name="Pig" horiz-adv-x="1081" d="M927.966 693.242c-3.812-23.381-17.152-40.421-32.393-56.669 16.384-25.362 35.823-47.157 57.924-66.576 9.91-8.718 20.196-17.040 30.868-24.966 5.717-4.359 11.054-9.115 20.201-7.133 8.38 1.585 15.241-4.755 17.146-13.87 3.812-16.248 3.43-32.1-3.812-47.555-6.098-13.474-11.054-14.663-23.245-5.548-22.107-17.040-48.020-25.362-75.076-30.514-16.39-3.17-33.155-6.737-49.926-7.133-21.339-0.396-40.010-7.925-53.732-23.777-22.864-27.345-52.975-40.026-84.224-51.517-23.245-8.715-46.871-17.038-69.74-25.759-29.343-11.093-43.065-34.873-47.633-65.781-0.762-4.756-0.762-9.91-1.525-14.666-1.143-9.904 0-19.018 6.855-27.739 5.717-7.134 8.385-16.646 12.959-25.759-21.339 1.587-41.159 2.776-62.117 4.363 0 3.561-0.381 7.925 0 12.282 3.049 31.704 6.098 63.403 9.148 95.107 1.143 13.079-2.668 22.591-15.246 26.158-12.957 3.567-26.676 5.945-40.015 5.945-21.341-0.398-42.683-1.985-63.643-5.154-28.963-4.756-56.783 0-84.603 8.721-11.051 3.567-22.865 5.939-34.298 8.317-10.671 1.985-21.341 0.398-29.344-7.925-19.054-19.416-43.444-28.928-67.834-38.832-24.771-10.308-40.015-34.082-38.109-61.821 0.381-6.736 4.573-13.477 7.621-19.422 4.954-9.904 10.671-19.018 17.15-30.51-20.961-2.776-38.872 0-57.164 5.148 0.381 3.174 0.762 5.547 0.762 7.925 0.762 11.89 1.525 22.989-1.905 34.873-6.097 21.003 0 41.216 8.765 60.24 6.097 13.073 7.621 26.55 0.381 38.832-15.625 25.759-32.774 50.726-49.542 76.881-40.015-34.476-80.030-61.026-131.477-60.634-0.381 0.796-0.762 1.985-1.143 2.776 3.049 1.189 5.716 2.776 8.765 3.567 46.875 13.87 78.124 47.553 102.895 88.767 1.906 3.17 2.287 8.718 1.525 13.078-9.146 54.687-6.479 108.582 14.863 160.496 11.052 27.344 26.295 52.706 51.447 66.576 18.293 9.907 38.872 16.247 59.451 20.21 95.274 18.625 191.691 23.381 288.108 14.266 81.936-7.926 161.581-26.155 240.088-51.517 11.435-3.566 17.533-1.981 25.919 7.133 25.532 27.344 58.687 40.421 96.796 48.346-3.43-16.247-6.48-30.514-9.91-46.365 15.627 1.981 31.249 4.359 48.020 7.133zM723.701 193.496c-12.197 0-24.775 1.587-35.061 10.303-8.004 6.741-12.197 15.058-9.529 26.158 3.812 16.247 0 32.097-4.955 47.553-4.193 12.282-8.385 24.969-12.959 37.251-2.668 6.736-0.762 9.512 5.336 11.89 13.34 4.756 26.675 9.904 40.016 15.058 5.336 1.98 7.242-1.189 9.529-5.154 10.286-19.814 9.142-40.42 6.098-61.821-2.287-16.247-4.955-32.495-4.955-49.135-0.381-10.303 3.812-21.003 6.48-32.102zM291.537 318.726c-1.524-12.686-3.43-25.367-4.192-38.047-0.381-8.715 0.381-17.829 1.906-26.55 1.524-10.303 6.097-17.436 15.625-22.591 8.003-4.358 14.1-12.282 20.96-18.625-0.381-1.183-1.143-2.372-1.524-3.959-11.052 0-22.104 0.791-33.537 0-9.908-0.791-17.911 1.98-23.628 10.701-2.286 3.169-4.954 5.945-7.622 8.715-19.817 18.625-20.96 41.609-14.482 66.179 0.762 2.378 2.287 5.552 4.573 6.741 14.482 5.547 28.201 11.093 41.92 17.436z" />
<glyph unicode="&#xe91b;" glyph-name="For-Desktop-Subhead2" d="M0 459.469c0 138.445 55.91 263.578 146.432 354.099s215.654 146.432 352.768 146.432c138.445 0 263.578-55.91 354.099-146.432s146.432-215.654 146.432-354.099c0-137.114-55.91-262.246-146.432-352.768s-215.654-146.432-354.099-146.432c-137.114 0-262.246 55.91-352.768 146.432s-146.432 215.654-146.432 352.768zM77.21 459.469c0-115.814 47.923-219.648 125.133-296.858s181.043-125.133 296.858-125.133c115.814 0 222.31 47.923 299.52 125.133s123.802 181.043 123.802 296.858c0 115.814-46.592 222.31-123.802 299.52s-183.706 123.802-299.52 123.802c-115.814 0-219.648-46.592-296.858-123.802s-125.133-183.706-125.133-299.52zM499.2 745.677c106.496 0 150.426-62.566 150.426-167.731 0-57.242-3.994-99.84-57.242-143.77l69.222-259.584h-98.509l-61.235 236.954h-35.942v-236.954h-94.515v571.085h127.795zM465.92 661.811v-167.731h29.286c27.955 0 46.592 10.65 54.579 26.624s9.318 35.942 9.318 55.91c0 19.968-1.331 41.267-9.318 57.242s-26.624 27.955-54.579 27.955h-29.286z" />
<glyph unicode="&#xe91c;" glyph-name="Fish" d="M641.371 234.109c-4.693 0-9.603-0.273-14.461 0.051-44.362 2.731-89.161 2.571-132.979 9.017-91.619 13.545-176.963 47.303-259.25 88.98-8.84 4.483-13.915 2.566-21.445-2.623-35.742-24.855-71.101-50.529-108.644-72.374-18.716-10.928-41.416-15.735-62.971-20.594-8.403-1.911-22.427 0.762-26.684 6.61-4.202 5.678-1.692 19.337 2.237 27.364 8.403 17.044 19.644 32.666 29.685 48.947 17.953 28.951 36.342 57.68 53.422 87.178 3.219 5.517 3.219 15.022 0.927 21.304-15.279 41.952-40.271 78.222-68.318 112.581-9.495 11.58-20.026 22.669-27.557 35.451-11.841 20.047-3.547 34.14 19.535 34.195 12.55 0.055 25.483-1.421 37.652-4.589 46.764-12.017 86.816-36.653 122.94-68.007 13.26-11.472 25.537-24.035 35.087-33.048 41.199 26.056 80.433 51.347 120.267 75.764 9.168 5.626 14.406 11.143 16.643 22.396 3.929 19.938 9.386 39.876 17.298 58.503 3.219 7.648 13.587 14.148 22.1 17.262 11.296 4.151 24.228 3.66 36.069 6.609 54.622 13.656 109.354 26.875 163.482 42.115 38.855 10.925 73.722 5.244 103.026-21.522 31.101-28.46 59.75-59.705 89.6-89.53 4.363-4.37 9.114-9.122 14.677-11.58 58.226-25.892 110.774-60.743 159.34-101.602 21.168-17.698 40.977-36.926 60.951-55.171-26.903-48.671-121.469-131.263-172.271-151.038-56.747 51.183-69.734 117.662-65.968 190.203-28.649-74.563-6.605-142.843 27.665-211.013-19.103-6.719-36.779-13.875-54.949-19.063-11.895-3.391-18.227-9.887-24.178-20.816-13.204-24.195-27.443-48.179-44.362-69.865-12.334-15.838-29.85-27.199-54.511-28.291 2.020 32.717 3.982 64.233 5.945 96.193z" />
<glyph unicode="&#xe91d;" glyph-name="Bell" d="M371.115 170.485c-50.322-30.407-98.311-18.045-126.659 10.655-26.154 26.47-40.71 74.291-9.263 126.464-2.368 1.638-5.572 3.277-8.010 5.712-53.039 52.804-106.007 105.707-159.011 158.577-15.114 15.081-15.079 24.659 0.105 39.775 23.437 23.335 46.909 46.636 70.381 69.936 13.094 12.992 21.243 13.653 35.557 2.543 13.024-10.101 27.337-7.976 41.581-4.458 25.527 6.269 48.268 18.843 68.153 35.387 23.124 19.26 44.82 40.297 66.62 61.090 26.432 25.181 49.939 53.741 80.968 73.628 97.197 62.274 196.937 66.628 298.797 11.354 1.781-0.976 3.521-2.020 5.296-2.996 0.489-0.243 1.115-0.209 1.809-0.348 8.152 7.732 16.088 15.778 24.553 23.231 23.506 20.723 60.388 20.027 81.596-1.254 21.834-21.907 22.528-58.060 1.394-82.162-7.248-8.255-15.013-16.126-22.989-24.659 4.705-8.951 10.103-17.832 14.211-27.306 46.842-107.412 34.338-208.034-38.377-299.457-24.411-30.72-54.534-56.912-82.364-84.878-19.115-19.194-36.671-39.606-50.563-62.868-10.729-17.971-20.093-36.608-23.194-57.714-1.741-11.702 0.034-22.187 7.799-31.795 10.274-12.749 9.262-22.5-2.679-34.412-24.24-24.172-48.515-48.31-72.858-72.374-12.465-12.368-23.714-12.334-36.181 0.137-53.387 53.322-106.704 106.65-159.986 160.040-2.472 2.441-4.423 5.365-6.687 8.152zM554.086 696.784c18.699-0.523 27.409 6.164 27.932 18.877 0.518 12.992-7.316 21.107-22.5 21.629-41.929 1.393-75.188-15.603-100.296-48.795-7.836-10.345-6.303-23.301 2.821-30.232 9.855-7.454 21.661-5.12 30.263 5.677 16.612 20.863 37.924 32.635 61.78 32.844zM337.823 199.982c-24.83 24.485-49.382 48.691-73.69 72.653-11.005-17.692-7.348-44.129 9.298-62.066 16.159-17.448 43.148-21.834 64.391-10.587zM967.077 299.418c-7.765-71.817-37.649-133.148-88.001-184.661-47.434-48.521-104.34-79.377-171.412-90.943-6.548-1.149-13.198-2.020-19.849-2.401-13.585-0.836-23.37 7.242-24.064 19.365-0.66 11.566 7.942 20.167 20.998 22.187 14.837 2.264 30.123 3.76 44.265 8.357 107.014 34.97 172.698 107.344 195.157 218.169 0.905 4.528 1.047 9.233 1.707 13.83 2.122 15.36 10.621 22.812 23.996 21.208 11.423-1.428 17.897-10.9 17.203-25.111zM365.056 903.111c13.512 0.139 22.531-6.583 23.716-18.006 1.358-12.852-5.781-21.699-19.886-23.371-93.505-11.215-162.041-60.010-209.472-139.803-18.109-30.441-28.696-63.877-32.074-99.298-1.428-14.977-9.96-24.032-22.601-23.126-12.885 0.94-20.582 11.877-18.84 27.027 6.443 56.632 26.85 107.796 61.814 152.726 49.765 64.051 113.739 105.671 194.15 120.508 7.661 1.428 15.462 2.229 23.194 3.343zM200.334 632.106c2.507 27.759 12.746 55.483 30.646 80.107 31.099 42.805 72.157 69.519 125.44 75.857 12.537 1.498 22.636-5.677 24.377-17.693 1.637-11.354-7.035-21.559-19.607-22.987-60.56-6.966-110.918-56.458-119.241-117.27-1.881-13.688-8.567-21.49-19.049-22.186-13.478-0.836-22.811 8.011-22.567 24.172zM695.268 135.999c-12.436-0.449-21.834 6.69-23.023 17.522-1.32 12.015 5.296 21.663 18.113 23.228 29.184 3.556 54.465 14.979 76.197 34.691 25.003 22.676 40.22 50.506 44.959 84.008 1.985 13.932 10.098 21.214 22.181 20.725 12.157-0.489 20.725-11.179 18.876-24.172-9.33-66.139-45.204-113.089-104.892-141.545-16.23-7.731-34.406-11.321-51.684-16.788-0.239 0.802-0.484 1.57-0.728 2.332z" />
<glyph unicode="&#xe91e;" glyph-name="BetterForYou" d="M794.066-64h77.266c39.094 0 71.214 29.804 75.867 67.988l76.8 767.417h-232.727v188.595h-91.694v-188.595h-231.332l13.963-108.966c79.593-21.886 154.063-61.468 198.749-105.24 67.026-66.125 113.106-134.577 113.106-246.335v-374.864zM0-17.431v46.097h699.58v-46.097c0-25.617-20.946-46.569-47.013-46.569h-605.556c-26.065 0-47.011 20.952-47.011 46.569zM699.58 308.531c0 372.535-699.58 372.535-699.58 0h699.58zM0.931 214.932h698.182v-93.133h-698.182v93.133z" />
<glyph unicode="&#xe91f;" glyph-name="Deals" horiz-adv-x="1073" d="M383.766 954.369c3.148-1.664 5.771-3.051 8.132-4.299 91.024-48.126 182.312-96.391 273.336-144.517 4.983-2.635 7.7-5.75 9.431-11.364 51.736-170.676 103.478-341.351 155.355-511.764 6.427-20.855 6.641-40.77-3.501-60.582-8.182-15.477-20.236-26.219-36.82-31.549-100.649-31.032-201.182-62.464-301.958-93.091-41.567-12.595-82.211 9.562-94.945 50.868-53.035 172.032-105.824 343.264-158.211 514.619-1.113 3.609-0.606 8.376 1.197 11.786 47.725 90.9 95.712 181.662 143.838 272.687 1.11 2.099 2.481 4.058 4.146 7.206zM592.233 303.089c7.139 4.613 14.126 8.304 20.339 13.073 12.288 9.279 23.547 19.773 27.624 35.742 7.851 30.086 1.048 57.851-13.619 84.066-7.27 12.907-17.52 23.362-31.622 27.794-16.74 5.159-33.787 8.465-50.946 12.839-13.327 3.355-26.38 7.236-39.556 11.517-11.464 3.711-18.689 12.901-21.765 23.59-2.843 9.223-3.266 19.851-3.441 29.678 0.268 17.647 22.304 29.491 37.089 19.997 7.456-4.948 13.78-12.657 19.461-19.689 3.35-4.456 4.944-10.333 7.353-15.299 19.651 6.058 39.297 12.115 58.548 18.049-8.46 36.694-43.193 79.559-94.618 71.171-4.452 14.436-8.763 29.135-12.824 43.031-10.691-3.075-20.315-6.043-30.201-8.871 3.896-15.486 7.653-31.233 11.069-44.452-12.705-10.065-25.351-17.476-34.354-28.156-30.555-36.206-21.59-97.335 17.053-125.822 13.966-10.406 30.875-13.975 47.522-17.403 12.683-2.677 26.073-3.379 38.459-7.246 10.679-3.296 21.987-7.934 29.784-15.409 11.435-10.747 15.194-26.497 13.502-42.384-1.039-10.859-4.847-20.597-16.628-25.108-17.535-6.505-39.263 1.287-47.645 17.808-3.428 6.846-6.056 13.941-8.836 20.109-18.047-5.564-35.952-10.864-53.997-16.428 5.919-19.909 15.046-38.834 32.269-51.97 22.177-17.091 47.972-20.997 77.015-16.213 3.94-13.497 7.899-26.331 11.357-37.556 7.885 2.209 15.906 4.681 24.99 7.261-4.788 11.259-9.148 23.966-13.38 36.279zM411.499 731.941c25.584-13.191 60.071-2.559 73.786 22.747 13.593 25.707 2.714 60.996-22.732 74.449-25.707 13.592-60.996 2.713-74.325-23.133-13.453-25.445-2.435-60.471 23.272-74.063z" />
<glyph unicode="&#xe920;" horiz-adv-x="1122" d="M720.052 658.895c-8.129 23.975-30.886 41.041-57.705 41.041h-446.982c-26.819 0-49.169-17.067-57.702-41.041l-84.52-243.404v-325.076c0-22.352 18.286-40.638 40.635-40.638h40.635c22.349 0 40.635 18.286 40.635 40.638v40.633h487.619v-40.633c0-22.352 18.286-40.638 40.633-40.638h40.638c22.348 0 40.633 18.286 40.633 40.638v325.076l-84.519 243.404zM215.365 252.952c-33.727 0-60.952 27.224-60.952 60.952s27.225 60.952 60.952 60.952c33.727 0 60.952-27.224 60.952-60.952s-27.226-60.952-60.952-60.952zM662.348 252.952c-33.724 0-60.952 27.224-60.952 60.952s27.229 60.952 60.952 60.952c33.729 0 60.952-27.224 60.952-60.952s-27.224-60.952-60.952-60.952zM154.413 456.129l60.952 182.855h446.982l60.952-182.855h-568.887z" />
<glyph unicode="&#xe921;" horiz-adv-x="1122" d="M802.050 783.669l-123.904-126.292-69.203 70.598-126.398-128.048 195.577-199.529 302.012 308.12-125.845 128.392-52.239-53.241z" />
<glyph unicode="&#xe922;" horiz-adv-x="1122" d="M678.122 552.912l-69.359 70.761-23.62-23.926 92.979-94.857 199.592 203.629-23.454 23.926-176.138-179.533z" />
<glyph unicode="&#xe923;" d="M730.704 668.919c-6.32 18.646-24.018 31.921-44.874 31.921h-347.657c-20.859 0-38.242-13.274-44.879-31.921l-65.739-189.314v-252.841c0-17.38 14.222-31.602 31.605-31.602h31.605c17.383 0 31.605 14.222 31.605 31.602v31.607h379.257v-31.607c0-17.38 14.222-31.602 31.607-31.602h31.602c17.385 0 31.607 14.222 31.607 31.602v252.841l-65.741 189.314zM338.173 353.183c-26.232 0-47.407 21.18-47.407 47.41 0 26.232 21.175 47.407 47.407 47.407s47.408-21.175 47.408-47.407c0-26.23-21.175-47.41-47.408-47.41zM685.83 353.183c-26.237 0-47.411 21.18-47.411 47.41 0 26.232 21.174 47.407 47.411 47.407 26.231 0 47.406-21.175 47.406-47.407 0-26.23-21.174-47.41-47.406-47.41zM290.765 511.21l47.407 142.222h347.657l47.406-142.222h-442.47z" />
<glyph unicode="&#xe924;" d="M512 960c-282.624 0-512-229.376-512-512s229.376-512 512-512c282.624 0 512 229.376 512 512s-229.376 512-512 512zM512 38.4c-226.304 0-409.6 183.296-409.6 409.6 0 94.72 32.256 181.76 86.528 250.88l573.952-573.952c-69.12-54.272-156.16-86.528-250.88-86.528zM835.072 197.12l-573.952 573.952c69.12 54.272 156.16 86.528 250.88 86.528 226.304 0 409.6-183.296 409.6-409.6 0-94.72-32.256-181.76-86.528-250.88z" />
<glyph unicode="&#xe925;" glyph-name="EmailSignUp" d="M487.619 192c0 183.467 152.625 331.852 341.332 331.852 52.662 0 101.916-11.852 146.29-32.237v316.681c0 52.148-43.89 94.815-97.525 94.815h-780.192c-53.638 0-97.524-42.667-97.524-94.815v-568.891c0-52.144 43.886-94.811 97.524-94.811h393.996c-2.438 15.644-3.901 31.289-3.901 47.406zM97.524 808.296l390.095-237.037 390.097 237.037v-94.814l-390.097-237.037-390.095 237.037v94.814zM748.009 49.778l-172.618 167.822 68.756 66.844 103.373-100.506 206.751 201.011 69.729-66.844-275.991-268.328z" />
<glyph unicode="&#xe926;" glyph-name="LimitedTime" d="M512 403.088v0zM563.494 762.386c209.654-25.151 375.173-197.614 375.173-409.601 0-229.951-191.266-416.785-426.667-416.785s-426.667 186.834-426.667 416.785c0 211.987 161.839 384.45 371.494 409.601v93.417h-88.276v104.197h286.899v-104.197h-91.957v-93.417zM471.54 388.716c11.035 10.779 25.747 14.372 40.46 14.372 3.678 0 7.356 0 11.035 0 7.356-3.593 18.39-7.186 25.747-14.372s11.035-17.966 14.713-28.746l172.876-43.116-14.717-46.706-172.871 46.706v-3.59c-11.034-7.185-22.069-14.376-36.782-14.376s-29.425 3.595-40.46 14.376c-18.39 21.555-18.39 53.891 0 75.452zM512 708.491c22.069 0 40.46-21.558 40.46-43.116 0-25.151-18.391-43.116-40.46-43.116-25.747 0-44.138 17.965-44.138 43.116 0 21.558 18.39 43.116 44.138 43.116zM254.529 604.295c14.713 14.372 44.138 14.372 58.85 0 18.391-17.965 18.391-43.116 0-61.081-14.713-17.965-44.138-17.965-58.85 0-18.391 17.965-18.391 43.116 0 61.081zM147.862 352.785c0 21.561 18.39 39.524 40.459 39.524 25.747 0 44.138-17.963 44.138-39.524 0-25.151-18.391-43.116-44.138-43.116-22.069 0-40.459 17.966-40.459 43.116zM254.529 101.279c-18.391 14.37-18.391 39.521 0 57.486 14.713 17.966 44.138 17.966 58.85 0 18.391-17.966 18.391-43.116 0-57.486-14.713-17.966-44.138-17.966-58.85 0zM512-2.918c-25.747 0-44.138 17.966-44.138 39.521 0 25.151 18.39 43.116 44.138 43.116 22.069 0 40.46-17.966 40.46-43.116 0-21.555-18.391-39.521-40.46-39.521zM769.473 101.279c-18.392-17.966-44.14-17.966-62.532 0-14.711 14.37-14.711 39.521 0 57.486 18.392 17.966 44.14 17.966 62.532 0 14.711-17.966 14.711-43.116 0-57.486zM876.14 352.785c0-25.151-22.073-43.116-44.14-43.116s-44.14 17.966-44.14 43.116c0 21.561 22.073 39.524 44.14 39.524s44.14-17.963 44.14-39.524zM769.473 604.295c14.711-17.965 14.711-43.116 0-61.081-18.392-17.965-44.14-17.965-62.532 0-14.711 17.965-14.711 43.116 0 61.081 18.392 14.372 44.14 14.372 62.532 0z" />
<glyph unicode="&#xe927;" glyph-name="Meat" d="M516.415 789.333c73.557-4.727 147.223-8.695 220.712-14.424 74.115-5.797 141.369-32.125 204.032-70.599 12.544-7.695 24.417-16.425 36.255-25.155 24.906-18.392 38.952-43.27 41.825-73.601 5.080-53.829 8.090-107.831-1.331-161.488-8.476-48.17-29.036-89.956-70.65-119.287-19.337-13.631-41.335-21.464-64.734-23.461-70.65-6.076-141.443-7.697-212.161-0.796-71.458 6.969-135.732 32.922-194.719 72.431-40.562 27.154-80.914 54.62-121.371 81.914-53.557 36.059-112.299 58.453-176.68 66.976-36.078 4.762-72.192 10.386-106.064 24.43-26.761 11.111-50.335 26.708-64.626 52.69-11.314 20.565-8.477 41.89 6.76 60.006 20.036 23.878 45.886 40.545 72.613 55.9 57.796 33.229 120.74 51.932 186.487 62.214 74.084 11.56 148.763 10.387 223.407 10.249 6.725 0 13.416 0 20.141 0 0 0.655 0.071 1.311 0.105 2.001zM713.938 552.277c17.163 3.416 35.971 6.659 54.574 11.007 43.048 10.007 83.996 25.223 120.53 50.31 4.028 2.76 7.703 7.142 9.557 11.559 3.226 7.729-0.245 17.46-6.235 21.773-7.634 5.487-16.879 5.798-25.355 0.173-27.011-17.978-56.57-30.4-87.745-39.233-39.617-11.18-80.037-17.702-121.196-19.496-7.777-0.345-16.117 1.311-23.506 3.899-21.083 7.419-41.438 16.943-62.731 23.671-122.634 38.819-248.874 51.31-377.075 48.343-5.99-0.138-12.925-3.657-17.549-7.66-6.445-5.59-6.62-13.941-2.907-21.498 4.273-8.73 12.049-11.835 21.612-11.628 80.949 1.932 161.407-3.692 241.201-17.322 79.933-13.665 157.24-35.196 228.243-75.189 29.349-16.528 56.462-36.197 79.929-60.351 21.51-22.153 38.918-47.066 52.196-74.878 5.672-11.94 17.653-16.081 28.262-10.973 10.126 4.864 13.943 16.632 8.761 28.019-14.33 31.435-32.996 60.178-58.078 84.229-20.105 19.358-41.825 37.094-62.487 55.244zM0.694 540.441c13.17-8.109 25.325-16.46 38.25-23.361 33.031-17.632 69.39-24.189 105.854-30.952 34.852-6.488 70.021-12.733 103.822-23.085 42.419-13.009 78.847-38.336 115.346-62.87 41.683-28.018 83.296-56.212 125.959-82.78 49.914-31.056 105.189-48.242 163.579-56.041 61.542-8.243 123.335-6.554 185.088-3.999 25.219 1.070 50.751 3.14 75.344 8.385 46.586 9.973 81.579 37.336 107.639 77.949 0-11.042 0.489-20.946-0.108-30.748-1.746-30.913-1.889-62.106-12.186-91.921-14.854-43.031-39.475-78.399-82.386-98.759-19.405-9.21-40.351-13.665-61.577-14.074-56.223-1.138-112.509-2.139-168.693-1.104-37.655 0.688-74.61 8.073-110.62 19.564-45.22 14.421-85.747 37.643-124.768 63.733-38.636 25.845-76.886 52.241-115.591 77.983-53.067 35.265-112.019 54.898-175.139 63.698-32.891 4.585-65.782 9.938-96.711 22.494-28.793 11.702-54.503 27.642-68.655 56.592-2.802 5.762-4.659 12.595-4.764 18.944-0.455 35.921-0.21 71.842-0.175 107.762 0 0.828 0.315 1.656 0.49 2.588z" />
<glyph unicode="&#xe928;" glyph-name="Milkshake" d="M297.353 529.88c153.376 0 305.618 0 459.372 0-23.478-198.218-46.962-395.662-70.44-593.88-110.962 0-221.543 0-333.261 0-18.178 197.831-36.735 395.662-55.67 593.88zM397.283 824.885c-2.272-41.812 25.374-60.782 54.155-77.816 43.551-25.552 92.026-37.94 140.502-49.167 1.894-0.387 3.783-0.387 5.678-0.775 0.381 0 1.138 0.387 3.032 1.549-10.229 5.807-20.070 10.453-29.161 16.26-41.28 25.938-81.422 53.426-107.175 96.786-28.403 48.006-1.515 104.142 52.64 111.498 20.829 2.71 40.143-1.161 51.504-10.453-0.757-0.387-1.136-1.549-1.893-1.549-21.586-6.194-26.51-22.841-12.876-41.425 8.332-11.227 20.451-17.421 33.706-20.131 25.372-5.42 50.369-12.002 73.091-24.777 31.431-17.808 60.592-38.715 81.044-69.686 23.859-36.004 31.807-75.881 26.886-118.854-1.513-13.55-5.678-27.1-8.329-40.65-1.519-8.13-6.064-10.453-14.017-10.066-71.572 0.387-143.15 0-214.724 0-76.498 0-152.619 0-229.117-0.387-9.468 0-13.255 2.71-14.77 12.389-6.438 51.877-3.787 102.593 20.072 149.825 18.178 35.618 46.202 60.395 83.315 74.719 1.515 1.549 3.409 1.936 6.438 2.71zM718.814 820.24c-13.255 6.969-25.372 13.163-38.246 19.357 20.827 40.263 41.654 80.139 62.862 120.402 12.117-5.42 24.24-10.453 37.114-15.873-20.452-41.424-40.897-82.075-61.73-123.887z" />
<glyph unicode="&#xe929;" d="M811.19 614.815l-30.447 32.711c10.746 0 22.391-4.089 31.346 2.045 15.223 12.267 17.909 24.533 9.853 21.466-0.899 0-3.584-1.022-4.483-2.044-21.493-10.222-43.884 12.266-68.062 10.222-4.477-3.067-9.853-5.111-10.746-12.267-0.899-7.155 5.37-9.2 4.477-17.378-14.33 1.022-20.599 19.422-34.93 10.222-3.584-2.045-10.746-10.222-6.269-18.4 2.685-5.111 12.538-4.089 17.015-8.178-0.893-4.089-2.685-6.133-8.061-6.133-3.578 0-7.162 0-11.639-1.022l-73.438-5.111c-32.245-2.045-64.485-5.111-96.726-8.178s-63.587-10.222-96.724-8.178c-31.346 1.022-63.587 5.111-95.829 8.178-31.346 3.067-66.274 11.245-88.664-8.178-15.225-12.266-12.538-14.311-17.912-24.533-1.791-4.089-2.687-4.089-5.374-9.2-7.165-14.311-14.33-85.867-14.33-102.223 2.687-66.445-11.642-40.889-19.703-62.356-8.956-25.557 6.269-52.136 7.165-75.642 6.269 2.042 9.852 13.284 9.852 23.506-0.896 32.711 16.121 31.693 17.911 51.114 0.896 14.311-7.165 8.178-4.478 25.556 4.478 28.623 5.374 105.289 13.434 123.69l-1.791-86.889c0-12.267-0.896-30.667 1.791-42.933 1.791-11.245 11.643-17.378 11.643-29.645-2.687-3.067-5.374-3.067-8.061-6.132-2.686-2.048-5.373-5.114-7.165-7.157-3.582-6.133-7.165-14.313-6.269-23.512 0.895-12.265 6.269-26.578 8.061-52.133 1.791-19.422 1.791-39.868 0-59.29-0.896-4.090-1.791-10.223 0-14.313 1.791-6.133 3.582-4.085 6.269-7.151 6.269-7.157-4.478-12.271-4.478-21.47 1.791-7.157 32.242-23.512 45.676-15.332 8.061 5.109 6.269 16.356 0 23.512-18.807 20.44-17.017 57.242-13.434 85.868 0.895 12.265 8.060 42.928 17.016 51.109 16.121-19.422 25.973-72.579 25.973-106.314 0-1.018 7.165-5.109 13.434-12.265 12.538-15.332 8.956-24.53 26.868-25.554 8.060 0 14.329 0 19.703 5.109-0.895 10.223-8.061 18.404-12.538 24.536-3.582 5.109-10.747 15.332-14.33 22.488-7.165 15.332-12.538 44.976-5.373 63.38l8.060 1.018 3.582-7.151c2.687-3.072 3.582-4.090 6.269-5.114 2.687 3.066 4.478 7.157 6.269 12.265l11.643 1.024c1.791-6.133 5.374-11.247 8.956-13.289 8.061 6.133 1.791 14.313 8.956 19.422 0.895 1.024 2.687 1.024 3.582 2.048 7.165 5.109 11.643 8.175 17.017 15.332 2.686 5.109 5.373 11.241 8.060 14.313 36.72 0 48.362-3.072 91.351 0 7.165 1.018 14.329 1.018 22.39 2.042s13.434 3.066 17.912-3.066c6.269-10.223 6.269-31.693 1.791-43.958-8.060-20.446-1.791-19.422 3.582-27.597 7.165-13.289 10.747-40.892 7.165-54.181-3.582-11.241-1.791-9.199 4.478-15.332s5.375-10.223 9.852-15.332c6.269-6.138 17.914-10.223 26.869-9.205 1.792 0 4.477 0 5.37 1.024 4.483 2.042 1.792 0 3.584 3.066 4.477 11.247-10.746 14.313-14.33 21.47-2.685 4.085-17.909 79.73 0.899 100.176 1.792-3.066 1.792-8.181 1.792-12.265 0.893-18.404 5.37-17.38 10.746-28.626 10.746-22.488 1.792-56.218 13.431-66.441 10.746-8.181 20.599-20.446 27.762-23.512 6.269-2.048 15.229-1.024 19.706 2.042 1.792 14.313-20.599 15.337-30.453 64.404-3.578 21.464-3.578 68.489 0 90.977 1.792 2.042 7.168 0 10.746 1.024 20.599 1.018 30.453 39.862 36.722 58.264 9.853 33.733 18.807 52.134 35.823 72.578 31.346 37.822 38.514 14.311 74.337 29.644 53.732 23.512 47.462 2.045 56.422 21.467 4.477 7.155 8.954 7.155 12.538 13.289 1.792 9.2-21.498 30.667-28.661 38.845l-30.453 33.733z" />
<glyph unicode="&#xe92a;" d="M512 960c-282.624 0-512-229.376-512-512s229.376-512 512-512c282.624 0 512 229.376 512 512s-229.376 512-512 512zM512 38.4c-226.304 0-409.6 183.296-409.6 409.6 0 94.72 32.256 181.76 86.528 250.88l573.952-573.952c-69.12-54.272-156.16-86.528-250.88-86.528zM835.072 197.12l-573.952 573.952c69.12 54.272 156.16 86.528 250.88 86.528 226.304 0 409.6-183.296 409.6-409.6 0-94.72-32.256-181.76-86.528-250.88z" />
<glyph unicode="&#xe92b;" glyph-name="Party" d="M472.11 576.393c0-7.316 6.271-12.543 13.588-12.543s12.543 5.226 13.588 12.543l21.951 345.978c1.046 20.905-14.634 37.629-35.538 37.629s-36.584-17.769-35.538-37.629l21.951-345.978zM106.272 750.95l260.267-228.91c5.226-4.181 13.588-4.181 18.815 1.046s5.226 13.588 1.045 18.814l-228.91 260.267c-13.588 15.679-37.629 15.678-52.263 2.090-14.633-16.724-13.587-39.719 1.046-53.308zM865.121 92.444l-260.267 228.91c-5.222 4.181-13.585 4.181-18.813-1.047s-5.228-13.585-1.047-18.813l228.91-260.267c13.591-15.679 37.632-15.679 52.264-2.094 14.632 16.725 13.591 39.72-1.047 53.311zM986.374 457.235l-345.981-21.951c-7.316 0-12.544-6.271-12.544-13.588s5.228-12.543 12.544-13.588l345.981-21.952c20.901-1.041 37.626 14.635 37.626 35.54s-17.766 36.584-37.626 35.538zM586.041 522.041c5.228-5.226 13.591-5.226 18.813-1.045l260.267 228.91c15.679 13.588 15.679 37.629 2.094 52.263-14.632 14.634-38.673 13.588-52.264-2.091l-228.91-260.267c-5.228-4.181-5.228-12.543 0-17.769zM364.449 837.705c17.896 0 32.402 14.508 32.402 32.403s-14.507 32.402-32.402 32.402c-17.896 0-32.403-14.507-32.403-32.402s14.508-32.403 32.403-32.403zM803.453 224.142c12.123 0 21.953 9.83 21.953 21.953s-9.83 21.948-21.953 21.948c-12.123 0-21.948-9.825-21.948-21.948s9.825-21.953 21.948-21.953zM541.096 456.19c8.082 0 14.634 6.552 14.634 14.634s-6.552 14.633-14.634 14.633c-8.082 0-14.633-6.551-14.633-14.633s6.551-14.634 14.633-14.634zM576.637 664.194c12.117 0 21.948 9.827 21.948 21.95s-9.83 21.951-21.948 21.951c-12.125 0-21.953-9.828-21.953-21.951s9.828-21.95 21.953-21.95zM915.297 541.9c12.123 0 21.948 9.828 21.948 21.95s-9.825 21.951-21.948 21.951c-12.123 0-21.953-9.828-21.953-21.951s9.83-21.95 21.953-21.95zM728.195 503.226l-8.363 39.719-31.357-27.176 39.72-12.543zM616.351 865.927l-48.079-21.95 42.856-31.357 5.222 53.307zM328.911 756.177l-39.719 10.452 10.452-39.719 29.267 29.267zM893.343 292.085l30.316 28.223-39.72 11.497 9.404-39.72zM533.779 406.018l-12.542-39.722 40.764 9.409-28.222 30.313zM383.263 633.883l11.498-6.271 15.679 55.398-27.176 1.044v-50.171zM759.552 339.12l2.094-9.404 40.761 14.632-10.45 17.766-32.404-22.994zM835.857 634.927l28.223 33.448-18.813 9.407-15.684-35.538 6.275-7.316zM468.974 496.955l-18.815 9.407-15.679-35.538 6.272-8.362 28.221 34.493zM694.75 756.176l-15.679 26.131-48.082-30.313 2.088-14.633 61.673 18.814zM306.96 486.503c-25.086 25.086-66.896 16.724-81.53-14.634l-222.638-493.356c-11.498-25.088 14.633-51.217 39.719-39.72l493.358 222.635c32.403 14.638 39.721 56.445 14.634 81.533l-243.543 243.542z" />
<glyph unicode="&#xe92c;" glyph-name="Recipe" d="M967.111 140.777c-5.86 0-10.803 0-15.798 0-284.905 0-569.807-0.125-854.711 0.119-33.286 0.046-64.749-4.506-92.35-23.785-0.781-0.535-1.909-0.62-4.253-1.28 0 4.215 0 7.817 0 11.418 0 240.56 0 481.158 0 721.717 0 36.859 12.281 68.051 44.222 90.846 21.612 15.431 46.218 20.188 72.43 20.188 175.716-0.041 351.432 0 527.148 0 95.431 0 190.908 0 286.339 0 27.944 0 36.927-8.605 36.927-35.329 0-257.107 0-514.213 0-771.321 0.046-3.76 0.046-7.526 0.046-12.572zM484.054 294.628c59.628 0 119.298 0 178.929 0 26.209 0 35.322 8.602 35.368 33.343 0 62.009 0.176 124.063-0.216 186.075-0.046 8.356 2.56 13.735 9.114 19.319 36.671 31.233 50.642 71.278 42.399 116.535-12.413 68.093-75.685 111.241-147.684 103.877-3.686-0.372-9.068 1.655-11.543 4.344-58.586 64.287-154.234 64.246-213.515-0.083-2.474-2.689-7.682-4.136-11.674-4.302-11.847-0.455-24.086 1.737-35.629-0.207-54.508-9.267-92.436-38.473-108.233-89.563-16.014-51.752-0.911-96.389 40.664-132.711 5.121-4.468 6.857-8.729 6.857-15.017-0.217-62.715-0.13-125.428-0.13-188.142 0-24.906 8.983-33.428 35.282-33.428 60.019-0.085 119.994-0.040 180.012-0.040zM966.81 89.85c0-51.712 0-101.973 0-153.31-4.079-0.165-7.942-0.501-11.765-0.501-289.587-0.040-579.137-0.040-868.727 0-44.569 0-78.029 25.236-84.799 63.585-8.202 46.746 27.514 88.405 77.377 90.186 3.992 0.125 7.942 0.040 11.935 0.040 289.2 0 578.398 0 867.644 0 2.429 0 4.904 0 8.334 0zM644.494 448.063c-107.929 0-214.035 0-321.791 0 0 6.537 0 12.617 0 18.657 0 21.015-0.695 42.072 0.217 63.046 0.695 15.844-5.511 26.352-19.268 35.246-34.414 22.215-45.133 64.328-25.17 98.665 13.714 23.621 34.631 37.976 65.052 39.383-2.3-12.783-4.557-24.449-6.38-36.198-0.781-5.088-1.041-10.342-0.694-15.472 0.824-12.369 10.372-22.587 21.568-23.745 15.233-1.531 26.733 5.254 29.901 19.154 2.43 10.673 2.040 22.008 4.861 32.557 9.374 34.874 30.031 61.019 67.266 72.147 41.141 12.328 86.665-9.060 105.325-50.387 6.295-13.941 9.026-29.62 11.455-44.761 2.52-15.638 9.808-26.89 21.788-28.669 18.142-2.648 32.808 8.48 31.937 26.145-0.779 16.010-4.079 31.895-6.377 48.401 13.022 1.903 24.821-3.103 35.846-9.68 49.562-29.661 51.428-95.976 3.254-127.664-13.67-8.977-19.701-19.484-19.092-35.329 0.996-26.642 0.302-53.49 0.302-81.497zM323.050 346.294c0 16.839 0 32.933 0 49.685 106.888 0 213.385 0 320.664 0 0-16.297 0-32.641 0-49.685-106.498 0-212.995 0-320.664 0z" />
<glyph unicode="&#xe92d;" glyph-name="Sandwich" d="M0.043 422.865c0 146.341 0 292.683 0 439.024 0 3.6-0.13 7.244 0.087 10.844 1.083 17.696 20.531 28.279 35.691 18.997 4.851-2.95 8.966-7.244 12.994-11.321 296.662-298.755 593.278-597.552 889.857-896.395 3.032-3.078 6.104-6.201 8.658-9.631 5.678-7.543 6.804-16.003 2.56-24.462-4.119-8.238-10.962-13.272-20.491-13.79-2.856-0.176-5.757-0.085-8.664-0.085-291.203 0-582.405 0-873.609 0-32.616 0-47.126 14.746-47.126 47.838 0.043 146.295 0.043 292.642 0.043 438.981zM119.678 654.131c-22.523 0.261-41.235-17.349-41.106-38.645 0.13-22.988 17.716-41.161 39.979-41.335 21.701-0.217 39.979 17.74 40.369 39.643 0.39 22.164-17.066 40.077-39.243 40.337zM205.484 380.359c22.523-0.046 40.022 17.175 40.11 39.47 0.086 21.86-17.802 40.25-39.46 40.554-21.96 0.304-41.019-18.52-40.889-40.424 0.13-22.034 17.932-39.514 40.239-39.599zM391.867 211.246c17.585-0.171 32.529 14.012 32.572 30.885 0.043 18-14.294 32.7-32.009 32.831-17.5 0.131-31.923-13.75-32.356-31.186-0.477-18.085 13.471-32.353 31.793-32.529zM578.509 41.876c0.085 17.869-14.206 32.438-31.922 32.484-17.933 0.046-31.966-14.182-31.923-32.313 0.043-17.869 14.727-32.444 32.269-32.097 17.239 0.347 31.536 14.791 31.576 31.926zM320.354 79.957c-0.043-18.478 13.687-32.188 32.096-32.011 17.759 0.131 31.186 13.835 31.186 31.835 0.043 17.613-13.774 31.926-31.013 32.182-17.933 0.262-32.27-13.921-32.27-32.006zM190.844 191.943c0.217 18.176-13.817 32.705-31.619 32.836-17.153 0.085-31.793-14.143-32.183-31.357-0.433-17.914 13.731-32.489 31.793-32.66 17.5-0.222 31.836 13.744 32.010 31.181zM462.99 507.398c50.288 47.537 139.862 43.026 190.931-8.978 56.872-57.903 49.334-142.83 9.011-188.108-66.446 65.49-132.935 131.029-199.942 197.086zM552.261 479.422c0-16.005 0-31.316 0-47.147 5.198 0 9.659 0 14.597 0 0 15.961 0 31.272 0 47.147-4.808 0-9.009 0-14.597 0zM603.415 385.001c12.083 8.108 23.74 15.915 35.607 23.852-3.641 5.162-6.281 8.935-9.398 13.316-11.827-8.154-23.131-15.961-34.913-24.116 2.941-4.424 5.285-7.938 8.704-13.053zM225.755 750.549c44.917 28.496 115.996 19.865 159.008-20.255 48.902-45.672 61.117-114.072 31.186-169.59-63.283 63.109-126.825 126.607-190.194 189.845zM317.409 680.198c0 10.106 0 20.212 0 30.231-5.371 0-9.832 0-14.727 0 0-10.453 0-20.039 0-30.231 5.068 0 9.616 0 14.727 0zM365.445 627.456c6.281 7.287 11.868 13.706 17.716 20.472-4.375 3.73-7.883 6.723-12.041 10.236-5.848-6.679-11.392-13.099-17.456-19.995 4.115-3.73 7.493-6.853 11.781-10.713zM261.708 800.516c-19.189-7.981-38.204-16.092-57.392-23.682-2.512-0.998-7.277-0.477-9.053 1.301-40.413 40.207-80.609 80.674-120.631 121.228-2.036 2.039-3.509 5.552-3.639 8.458-0.39 9.716-0.086 19.475-0.043 29.234 0.043 10.366 5.761 16.655 14.684 20.689 8.793 3.99 16.849 2.472 24.213-3.426 1.689-1.345 3.205-2.906 4.721-4.424 47.733-48.231 95.465-96.419 143.155-144.693 1.992-1.952 3.595-4.208 3.985-4.684zM892.541 77.784c-23.996 23.643-47.775 47.104-72.203 71.219 4.676 6.332 9.529 12.925 14.939 20.213-3.942 3.3-7.663 6.423-11.867 9.933-5.069-6.417-9.7-12.231-14.074-17.738-26.772 26.806-53.191 53.259-79.4 79.502 30.236 10.758 83.337 0.563 117.515-29.144 39.634-34.441 58.948-90.044 45.090-133.985zM926.236 130.571c26.596-26.499 50.768-50.574 74.98-74.689 4.853-4.813 9.705-9.626 14.729-14.313 7.663-7.111 10.007-15.485 6.451-25.458-3.51-9.802-10.007-15.701-20.702-15.918-9.358-0.176-18.756-0.609-28.069-0.046-3.51 0.216-7.669 2.037-10.223 4.466-13.255 12.709-26.249 25.719-38.98 38.992-2.122 2.213-4.25 6.593-3.51 9.114 7.145 24.633 9.011 49.527 5.325 77.852zM781.83 276.048c-27.893 3.857-52.929 1.212-78.097-4.818-4.983-1.166-12.299 7.418-17.846 11.065 11.566 20.514 22.090 39.208 31.881 56.599 20.053-19.649 41.062-40.249 64.063-62.845zM464.115 595.144c10.179-9.369 21.484-19.735 32.313-29.624-20.142-11.58-39.2-22.51-55.919-32.139 7.493 19.475 15.809 41.378 23.606 61.764z" />
<glyph unicode="&#xe92e;" glyph-name="Spice" d="M583.765 303.639c-76.667 74.337-152.899 148.253-229.829 222.803 15.010 26.037 30.413 52.752 45.905 79.511 52.907 91.427 105.638 182.94 158.851 274.198 12.25 21.033 28.27 39.352 48.398 54.025 46.433 33.798 97.371 34.603 144.543 1.569 12.032-8.439 23.632-17.81 34.179-27.946 61.042-58.69 121.828-117.677 182.522-176.748 17.766-17.302 34.31-35.622 44.373-58.52 21.487-49.021 11.816-93.124-25.207-130.78-15.838-16.114-34.657-30.575-54.477-41.855-113.647-64.839-227.994-128.53-342.124-192.61-2.492-1.485-5.12-2.628-7.134-3.647zM954.772 640.047c-5.911 17.811-16.458 30.575-28.666 42.406-62.054 60.216-123.972 120.603-186.243 180.607-9.233 8.905-19.519 17.090-30.413 24.002-16.498 10.516-35.493 14.248-52.56 3.435-13.346-8.439-26.954-19.422-34.833-32.441-42.843-70.903-83.889-142.824-125.505-214.447-0.437-0.763-0.044-1.993-0.044-3.604 152.372 0.043 304.573 0.043 458.264 0.043zM305.406 480.051c77.5-75.144 153.688-149.014 229.525-222.503-16.060-15.906-32.208-33.206-49.843-49.021-25.731-23.068-49.362-23.114-77.369-1.695-4.814 3.686-9.19 7.885-13.697 11.742 12.384 19.422 12.69 32.996 1.444 43.725-12.384 11.787-26.387 11.577-43.848-0.256-13.434 13.016-26.738 25.953-40.216 39.014 11.99 17.215 12.297 30.783 0.35 42.32-12.209 11.833-24.724 11.492-45.817-2.247-7.571 10.604-16.104 20.736-22.581 32.017-9.321 16.111-7.22 32.864 4.814 46.561 18.38 20.906 38.335 40.54 57.239 60.344zM123.888 198.053c-0.088 26.499 21.705 47.662 49.143 47.576 26.563-0.085 48.53-21.584 48.399-47.411-0.131-25.867-22.318-47.28-48.75-47.070-27.175 0.296-48.705 20.992-48.793 46.905zM228.693-7.111c-26.65 0.21-48.312 21.84-47.874 47.792 0.437 24.974 23.018 46.518 48.662 46.393 26.476-0.171 48.312-21.754 48.225-47.667-0.131-26.078-21.881-46.729-49.012-46.518zM48.269 151.023c26.694 0.21 49.056-21.077 49.187-46.774 0.131-25.953-21.793-47.115-48.793-47.070-26.957 0-48.924 21.328-48.662 47.195 0.263 25.572 21.837 46.433 48.268 46.649z" />
<glyph unicode="&#xe92f;" glyph-name="StarPercent" d="M655.849 407.665c-24.087 0-45.056-19.955-45.056-44.583 0-24.087 21.988-43.998 45.056-43.998 23.569 0 43.998 20.429 43.998 43.998 0 23.637-19.883 44.583-43.998 44.583zM369.143 577.977c-23.568 0-45.058-19.908-45.058-44.018s20.97-44.539 45.058-44.539c23.613 0 44.583 20.97 44.583 44.539 0 24.111-20.97 44.018-44.583 44.018zM926.674 448l97.326 81.1-117.572 47.069 67.43 107.177-126.362 8.406 31.027 122.814-122.795-31.048-8.425 126.362-107.156-67.452-47.047 117.572-81.124-97.302-81.077 97.302-47.047-117.572-107.2 67.452-8.383-126.362-122.837 31.048 31.070-122.814-126.384-8.406 67.452-107.177-117.572-47.069 97.302-81.1-97.302-81.078 117.572-47.070-67.452-107.179 126.384-8.402-31.070-122.817 122.837 31.050 8.383-126.384 107.2 67.476 47.047-117.572 81.077 97.28 81.124-97.28 47.047 117.572 107.156-67.476 8.425 126.384 122.795-31.050-31.027 122.817 126.362 8.402-67.43 107.179 117.572 47.070-97.326 81.078zM253.334 533.959c0 62.887 52.922 114.792 115.809 114.792s115.335-51.363 115.335-114.792c0-63.429-51.905-115.312-115.335-115.312-63.384 0.023-115.809 51.905-115.809 115.312zM426.832 247.905h-52.967l222.217 406.744h52.969l-222.219-406.744zM655.849 248.354c-62.367 0-115.806 50.825-115.806 114.227 0 62.89 52.921 115.834 115.806 115.834 63.431 0 114.796-52.945 114.796-115.834 0-63.403-51.365-114.227-114.796-114.227z" />
<glyph unicode="&#xe930;" glyph-name="Truck" horiz-adv-x="1081" d="M881.636 645.214h-139.207v197.215h-649.625c-51.042 0-92.803-44.373-92.803-98.607v-542.338h92.803c0-81.846 62.178-147.911 139.205-147.911s139.205 66.065 139.205 147.911h278.411c0-81.846 62.18-147.911 139.207-147.911s139.201 66.065 139.201 147.911h92.803v246.516l-139.201 197.214zM232.009 127.528c-38.513 0-69.602 33.030-69.602 73.956 0 40.92 31.089 73.956 69.602 73.956s69.603-33.035 69.603-73.956c0-40.926-31.089-73.956-69.603-73.956zM858.431 571.258l90.948-123.259h-206.95v123.259h116.002zM788.833 127.528c-38.514 0-69.604 33.030-69.604 73.956 0 40.92 31.090 73.956 69.604 73.956s69.598-33.035 69.598-73.956c0-40.926-31.084-73.956-69.598-73.956z" />
<glyph unicode="&#xe931;" glyph-name="Error" d="M0 18.745h1024l-512 884.366-512-884.366zM558.545 158.384h-93.091v93.093h93.091v-93.093zM558.545 344.565h-93.091v186.183h93.091v-186.183z" />
<glyph unicode="&#xe932;" glyph-name="Logo" horiz-adv-x="1159" d="M1099.090 330.174c9.139-16.505 12.955-36.413 10.395-57.843-5.294-44.118-36.12-61.377-50.958-69.688l-0.029-0.017c-19.050-10.651-42.303-12.895-58.465-12.895-8.859 0-17.843 0.671-25.986 1.96-6.888 1.083-13.422 2.888-19.466 5.106-5.762-2.631-12.267-4.075-19.232-4.075h-0.614c19.462-26.124 21.562-55.315 20.87-71.434-2.254-52.453-47.375-99.8-127.068-133.355-95.544-40.197-208.988-48.939-287.349-49.171h-2.381c-64.533 0-130.55 7.139-185.941 20.113-69.373 16.249-120 40.745-150.474 72.8-23.611 24.834-35.339 54.645-33.981 86.21 1.305 29.656 13.162 54.954 33.444 74.502-9.143 1.006-16.773 4.126-22.818 8.717-7.631-5.777-17.49-9.078-28.732-9.078h-104.328c-12.394 0-23.918 4.745-32.471 13.384-12.215 12.353-13.521 27.335-13.496 33.215v35.949c-0.256 11.811 4.123 23.338 12.113 31.9 6.376 6.808 14.571 11.321 23.662 13.1l2.215 5.861c1.745 4.621 3.614 9.568 5.519 14.589 16.441 43.505 27.298 72.078 34.52 91.033-9.475 8.381-15.237 20.656-15.237 34.763 0 1.701 0.051 10.83 0.102 19.573l0.028 4.269v0.039c0.040 6.051 0.074 11.149 0.074 12.197 0 25.22 20.512 45.748 45.736 45.748h73.239c9.706 0 34.059-1.753 50.781-18.077 11.755-11.502 16.902-24.421 18.976-31.436l16.338-44.149 2.356 16.427 0.384 3.997c17.977 152.202 34.161 242.177 76.132 318.279 50.679 91.909 103.867 102.276 124.712 102.302 16.851 0 31.729-5.158 44.994-13.487 11.626 41.957 47.426 78.319 104.046 78.499 61.228 0 119.052-47.218 158.821-129.534 35.006-72.543 55.467-157.128 61.69-275.058 5.264 2.862 12.382 2.305 19.536 1.745 2.904-0.227 5.813-0.455 8.607-0.455l38.489 0.439c33.93 0 51.062-28.547 57.541-39.637 10.060-17.226 10.138-37.057 6.399-54.955l0.493 0.002c0.319 0.003 0.657 0.007 0.985 0.012l0.811 0.009c0.232 0.003 0.473 0.004 0.705 0.004 16.78 0 30.218-2.682 40.902-6.447 4.579 1.651 9.709 2.553 15.389 2.553h27.252c27.194 0 46.94-19.418 46.94-46.212v-57.74c0-9.18-2.203-17.51-6.173-24.55zM1071.085 356.978v57.817c0 5.26-2.869 6.215-7.255 6.215h-27.271c-3.043 0-3.478-1.831-3.478-5.467v-9.104c0-2.887-1.874-2.347-5.275 1.058-0.184 0.185-0.386 0.388-0.599 0.609-4.473 4.586-15.862 16.256-45.085 16.256-32.962 0-44.691-11.063-53.859-21.43-9.168-10.341-22.305-34.995-10.243-60.087 11.068-23.026 42.578-29.265 57.648-32.248 1.352-0.269 2.57-0.51 3.632-0.735 15.263-3.224 37.386-11.321 30.73-23.674-6.637-12.352-27.532-8.922-39.588-5.054-12.064 3.868-18.337 14.854-19.131 17.665-0.948 3.378-4.481 6.318-9.116 6.318h-30.909c-5.505 0-6.786-2.94-6.786-6.885v-56.915c0-3.791 0.743-6.524 4.968-6.524h31.19c4.123 0 4.815 1.831 4.815 4.719 0 1.423-0.038 2.953-0.075 4.503v0.007c-0.039 1.593-0.078 3.207-0.078 4.748 0 3.043 1.716 4.178 4.533 1.367 2.791-2.811 18.62-12.146 36.231-14.906 17.65-2.785 40.854-3.198 56.136 5.364 15.263 8.536 27.474 18.697 30.092 39.353 2.84 22.591-5.226 42.525-31.754 51.809-11.67 4.073-23.127 7.386-33.067 10.262-12.665 3.662-22.866 6.614-27.938 9.517-10.317 5.905-12.182 22.591 2.357 26.639 13.061 3.662 24.277-0.335 32.169-4.926 6.608-3.842 9.96-12.481 10.578-16.117l0.068-0.43c0.589-3.51 1.188-7.152 6.405-7.152h32.526c5.323 0 7.429 2.115 7.429 7.427zM923.987 444.58c0 0 34.546 81.259-16.876 81.259h-44.456c-8.501 0-8.015-8.407-8.015-8.407s-0.076-34.633-0.076-39.224c0-0.409-0.012-0.826-0.023-1.245v-0.001c-0.107-3.872-0.22-7.985 8.628-7.985h34.007c24.097 0 26.811-24.396 26.811-24.396zM898.712 422.273h-89.986c-5.122 0-5.634-2.011-5.634-6.86v-35.82c0-3.894 1.204-5.674 5.839-5.674h6.838c3.022 0 6.632-0.206 4.814-5.054-1.71-4.56-21.902-69.086-25.301-79.947l-0.435-1.389c-1.204-3.842-10.167-3.429-11.78 0.619-1.225 3.075-12.299 46.162-17.994 68.327l-0.002 0.006-0.014 0.055-0.002 0.011c-1.796 6.986-3.054 11.879-3.293 12.757-0.999 3.636-0.614 3.842 2.817 3.842 0.073 0 0.147 0 0.222-0.001 0.137-0.001 0.276-0.003 0.42-0.006l0.61-0.014c3.459-0.087 8.172-0.205 8.172 4.483v38.837c0 4.436-0.461 5.854-5.634 5.854h-80.64c-6.12 0-6.077-3.028-6.027-6.646 0.005-0.333 0.010-0.671 0.010-1.013v-35.613c0-4.565 1.613-5.854 5.634-5.854h8.040c0.278 0 0.553 0.005 0.822 0.010 2.709 0.048 4.974 0.089 6.605-4.883 0.441-1.322 2.872-8.434 6.357-18.631l0.005-0.014 0.009-0.025 0.011-0.033c10.874-31.813 31.959-93.508 35.001-103.302 3.714-11.961 14.907-11.836 22.748-11.747 0.645 0.007 1.267 0.014 1.861 0.014l0.481 0.001c6.543 0.002 9.811 0.003 8.635-4.101l-0.187-0.661c-1.507-5.316-6.753-23.817-13.282-28.841-6.838-5.261-18.079-6.060-25.711-2.811-6.539 2.784-13.774 8.977-16.726 11.504-0.493 0.422-0.867 0.742-1.097 0.926-1.613 1.315-3.815 1.109-5.839-1.522-0.507-0.668-1.841-2.378-3.62-4.658-5.227-6.699-14.291-18.317-17.481-22.857-4.035-5.743-3.328-6.412-0.007-9.545 0.198-0.187 0.406-0.384 0.622-0.589l0.246-0.237c4.384-4.196 24.68-23.618 63.082-23.618 41.793 0 57.080 34.582 64.302 53.717s57.746 159.139 59.539 165.613c1.818 6.472 3.816 6.679 7.247 6.679h10.448c4.047 0 5.020 1.805 5.020 6.266v36.62c0.076 4.436-1.204 5.828-5.762 5.828zM797.662 474.882c-0.384 140.597-20.921 247.361-59.41 327.15-32.242 66.817-76.262 105.138-120.743 105.138-50.781-0.155-66.223-41.957-67.298-64.084-0.87-19.186 9.859-40.54 20.256-61.222 8.041-15.989 15.621-31.075 15.16-40.771-0.102-2.811-2.151-10.522-7.682-10.548-5.224 0-18.72 22.024-27.657 36.62-20.794 33.912-46.684 76.127-79.284 76.127-10.55 0-48.066-5.802-88.271-80.021-33.675-62.149-53.624-149.778-67.196-288.054 0.205-2.167 1.613-6.267 5.377-6.267h40.871c4.866 0 6.658 3.507 6.889 5.416 0.984 8.397 1.922 16.463 2.825 24.225l0.002 0.016c7.663 65.915 12.781 109.935 22.449 148.9 25.736 103.875 62.561 132.526 72.625 132.552 12.465 0 24.648-20.327 37.548-41.85l0.018-0.031 0.961-1.6c1.531-2.55 3.081-5.13 4.648-7.71 16.773-27.464 37.311-56.811 69.372-56.811 32.779 0.077 57.234 33.498 58.694 63.439 1.408 32.468-12.599 56.605-22.842 74.244-5.865 10.084-10.909 18.8-10.627 24.912 0.436 9.67 7.094 11.707 12.599 11.707 18.822 0 50.422-19.702 77.542-75.25 42.407-86.855 51.421-204.629 51.498-296.435 0.256-1.985 2.049-5.751 6.914-5.751h38.873c4.2 0.026 5.685 3.817 5.89 5.958zM305.089 239.332v36.413c0 2.734-2.612 6.783-7.094 6.783-0.85 0-3.335 0.014-5.726 0.027-2.216 0.013-4.352 0.024-5.029 0.024-7.632 0-9.45 7.066-9.45 7.066l-73.418 198.621c0 0-1.742 8.176-8.784 15.034-7.042 6.886-23.149 6.809-23.149 6.809h-63.893c-3.483 0-6.017-3.043-6.017-5.751 0-1.293-0.047-8.845-0.096-16.742v-0.016c-0.054-8.646-0.11-17.699-0.11-19.396 0-3.25 1.664-6.473 7.529-6.473h15.774c5.173 0 5.045-3.817 2.843-7.865-1.452-2.668-28.329-73.723-46.708-122.313l-0.001-0.002c-9.503-25.123-16.734-44.239-17.004-44.792-2.305-4.9-5.506-4.204-5.506-4.204h-11.985c-5.326 0-5.019-5.26-5.019-5.26v-36.723c0 0-0.026-6.472 6.223-6.472h90.448c5.839 0 5.966 1.548 5.966 5.674v37.934c0 4.254-2.355 4.848-6.171 4.848h-16.159c-4.814 0-6.171 3.146-5.301 6.086 0.358 1.186 5.583 16.143 7.196 20.399s2.407 4.461 7.042 4.461l70.678 0.129c7.035 0 7.774-1.991 8.681-4.436l0.154-0.412c0.827-2.176 3.618-10.024 5.093-14.17v-0.001l0.721-2.024c2.688-7.737 0.205-10.032-3.022-10.032h-15.878c-2.406 0-5.813-1.264-5.813-5.647v-38.347c0-3.043 1.435-4.461 6.428-4.461h102.048c3.175 0.025 4.507 3.249 4.507 5.235zM467.189 504.358v-38.863c0-2.708 1.382-3.946 5.070-3.946h7.298c5.122 0 5.429-1.522 5.429-6.988v-164.503c0-7.298-0.614-7.479-5.736-7.479h-10.55c-5.583 0-6.326-1.908-6.326-6.783v-35.2c0-5.132 2.1-6.472 7.247-6.472h62.382c5.454 0 6.017 2.217 6.017 5.853v11.244c0 3.636 4.43 1.522 6.786-1.109l0.252-0.285 0.079-0.091c2.818-3.22 12.342-14.101 41.615-16.696 24.993-2.192 52.65 4.513 68.911 25.762 12.471 16.299 22.1 31.978 22.1 73.652s-19.283 67.978-38.771 79.917c-19.488 11.94-45.455 14.364-62.023 9.903-14.878-4.023-28.091-14.673-29.987-16.968-1.844-2.269-5.429-4.049-5.429-0.207v98.537c0 5.055-2.203 6.473-5.327 6.473h-63.943c-4.737 0-5.096-1.806-5.096-5.751zM332.797 287.066c0 0 0.436-4.487-2.535-4.487h-10.243c-4.457 0-4.456-2.371-4.456-4.343v-39.986c0 0-0.537-4.152 5.198-4.152h87.785c2.817 0 5.429 1.625 5.429 5.854v37.857c0 4.049-0.205 5.26-5.224 5.26l-8.596-0.001c-3.492-0.010-5.668-0.015-5.668 3.637v30.946c0 13.745 4.712 22.152 11.857 29.347s20.87 15.24 34.699 16.427c10.426 0.886 16.266 0.16 21.13-0.444v0 0c1.229-0.153 2.394-0.297 3.556-0.406 3.61-0.336 5.634 1.366 5.634 4.254v51.396c0 3.043-0.794 6.009-7.042 6.679s-31.268-2.657-50.346-15.782c-13.812-9.532-21.106-24.348-23.948-30.121h-0.001c-0.556-1.13-0.942-1.914-1.173-2.243-1.408-2.037-3.815-2.837-3.815 0.618v38.244c0 3.842-1.306 6.653-5.814 6.653h-58.489c-3.611 0-5.224-0.103-5.224-4.951v-39.327c0-4.049 4.021-4.049 4.021-4.049s4.635-0.207 8.246-0.207c3.61 0 5.019-1.006 5.019-5.26v-81.414zM210.314 108.405c-0.871-20.399 6.734-39.249 22.663-55.986 24.353-25.608 68.936-46.574 128.911-60.63 51.755-12.114 113.7-18.799 174.391-18.799h2.229c73.674 0.232 180.025 8.279 268.245 45.44 62.817 26.433 96.644 59.106 101.254 96.783 3.304 26.974-3.79 50.905-36.568 66.636 0 0-2.715 0.284-4.225-2.424-6.453-11.45-12.779-21.817-21.998-33.886-3.431-4.487 0.614-7.685 0.614-7.685 11.755-9.181 13.188-21.611 3.406-33.422-8.681-10.444-21.126-25.041-72.957-45.749-42.74-17.072-118.131-37.522-234.443-37.831h-2.279c-135.365 0-237.337 32.829-268.092 65.244-6.428 6.783-9.552 13.358-9.296 19.548 0.819 19.418 27.605 30.197 75.442 30.378h0.845c12.906 0 25.864-0.876 38.694-2.424 9.603-1.186 18.847-2.657 27.734-4.359 20.512-3.945 40.434-9.361 59.154-15.447v0.052c23.248-7.678 42.077-15.776 55.884-21.715l0.004-0.001c2.237-0.962 4.343-1.868 6.314-2.706 8.118-3.456 13.47-5.726 16.441-6.628 4.686-1.418 9.142-2.011 13.213-1.753l0.231 0.026c11.395 0.773 20.256 8.458 22.509 19.599 1.998 9.67-0.947 20.166-12.010 25.35-29.168 13.641-81.178 35.562-142.561 49.694-17.208 4.074-34.391 7.324-51.164 9.387l-0.050 0.002-0.078 0.011c-0.044 0.007-0.090 0.013-0.128 0.013-12.907 1.574-25.583 2.45-37.772 2.45h-0.692c-74.289-0.232-121.741-30.559-123.866-79.17zM148.982 354.992l40.947 0.129c4.021 0 4.199 3.456 2.996 6.267-0.589 1.361-5.2 13.991-10.058 27.298-5.266 14.426-10.823 29.647-11.862 32.169-1.998 4.874-5.403 2.631-6.607-0.8-0.498-1.388-3.665-10.932-7.325-21.96l-0.035-0.105v-0.001c-5.373-16.188-11.79-35.524-12.384-36.964-0.999-2.424-1.691-6.035 4.328-6.035zM580.813 373.121c-25.813 0-36.877-20.605-36.877-45.697s13.88-43.943 35.775-43.943c21.895 0 37.977 16.556 37.977 42.499 0 25.918-11.063 47.142-36.876 47.142zM1138.302 427.359c-11.602 0-21.050-9.49-21.050-21.25 0-11.604 9.39-21.017 20.944-21.017 11.602 0 21.050 9.49 21.050 21.249-0.029 11.579-9.429 21.018-20.944 21.018zM1138.166 389.398c-9.264 0-16.539 7.35-16.539 16.814 0 9.438 7.294 16.814 16.645 16.814 9.264 0 16.539-7.35 16.539-16.814 0.029-9.413-7.294-16.814-16.645-16.814zM1129.694 417.585h9.429c2.869 0 5.072-0.826 6.55-2.321 1.159-1.16 1.768-2.785 1.768-4.668v-0.102c0-3.43-1.864-5.596-4.579-6.602l5.168-7.66h-5.448l-4.511 6.886h-3.69v-6.886h-4.685v21.353zM1139.065 407.14c2.357 0 3.642 1.29 3.642 3.043v0.103c0 2.037-1.439 3.12-3.739 3.12h-4.589v-6.267h4.685z" />
<glyph unicode="&#xe933;" glyph-name="Invisible" d="M514.143 191.557c128.449 0 231.209 101.727 231.209 228.889 0 29.672-4.28 59.342-17.125 84.773l137.014 135.639c68.504-59.342 124.169-131.399 158.419-220.412-81.349-203.459-278.303-347.575-513.797-347.575-64.225 0-128.449 12.718-184.109 33.907l102.759 101.727c25.69-12.718 55.659-16.954 85.635-16.954l-0.001 0.001zM47.446 64.4l128.449 127.162c-77.070 59.342-137.014 139.875-175.549 233.13 81.349 203.458 278.303 347.574 513.797 347.574 72.79 0 141.294-12.718 205.519-38.148l158.419 156.834 59.945-59.342-830.635-826.542-59.944 59.342zM304.339 322.96l72.79 72.055c-4.28 8.477-4.28 21.194-4.28 29.672 0 76.296 64.225 139.874 141.294 139.874 8.565 0 21.41 0 29.97-4.241l72.79 72.055c-29.97 16.954-64.225 25.43-102.759 25.43-128.449 0-231.209-101.727-231.209-228.888-4.28-42.389 8.565-76.296 21.41-105.968l-0.001 0.001zM505.578 284.812l145.574 144.116v-8.477c0-76.296-64.225-139.875-141.294-139.875l-4.28 4.24z" />
<glyph unicode="&#xe934;" glyph-name="Visible" d="M512 82.132c-230.4 0-430.934 145.067-512 349.867 81.067 204.802 277.333 349.869 512 349.869s430.934-145.067 512-349.869c-81.067-204.8-281.6-349.867-512-349.867zM512 662.4c-128.001 0-230.4-102.4-230.4-230.401s102.4-234.667 230.4-234.667 230.4 102.4 230.4 230.4c0 128.001-102.4 234.668-230.4 234.668zM512 291.198c-76.8 0-140.8 64-140.8 140.8s64 140.801 140.8 140.801c76.8 0 140.8-64.001 140.8-140.801s-64-140.8-140.8-140.8z" />
</font>
</defs>
</svg>
